<svg xmlns="http://www.w3.org/2000/svg" width="90" height="18" fill="none"><path fill="#000" fill-rule="evenodd" d="M16.8936 15.8672h-1.5659L13.8833 14.33V3.6075l1.4193-1.42884h1.6161l1.4235 1.42884V14.33l-1.4486 1.5372zm65.3135 2.1161h7.5069v-2.1536h-5.3382V9.58112h4.0151V7.42745h-4.0151V2.21199h5.3423V.0583198h-7.5068L82.2071 17.9833zM2.16456 9.22287h2.51205l1.48212-1.55798V3.66582L4.69755 2.21199H2.16456v7.01088zM0 18V.0583198h5.58514L8.34422 2.76186v5.76117L5.60608 11.3765H2.16456v6.6193L0 18zM39.0625 1.99954H34.972V.0583198h10.3916V1.99954h-4.1365V17.9958h-2.1646V1.99954zm-12.4598.23744v6.85675h2.1646l1.4695-1.59547V3.69081l-1.4444-1.45383h-2.1897zM33.603 17.9958h-2.3488L28.47 11.2474h-1.8673V18h-2.1646V.0583198h5.2251L32.4014 2.80768V8.3564l-1.926 2.0579 3.1276 7.5815zM62.4916 6.06943l1.457-1.53298v-.99144l-1.4318-1.41634h-1.6161l-1.4235 1.41634v.99144l1.4486 1.53298h1.5658zm.3098 2.13284v7.72323h5.1163v2.0578h-7.2766V8.20227h-.6448l-2.6376-2.83268V2.67855L60.0214 0h3.4081l2.6753 2.67855v2.69104l-2.6753 2.83268h-.6281zm-9.91 3.00763h-3.0982l1.3146-8.99791h.4564l1.3272 8.99791zm-6.2802 6.7734h2.1855l.695-4.6156h3.7053l.6825 4.6156h2.1854L53.4357.0708169h-4.1868L46.6112 17.9833zM73.9257 6.08193l1.436-1.53715v-.98727l-1.4235-1.41634h-1.6286l-1.4235 1.41634v.98727l1.4486 1.53715h1.591zm5.4428 9.85607v2.0578h-7.3059V8.20227h-.6364l-2.667-2.83268V2.69104L71.4513 0h3.3955l2.6879 2.67855v2.68687L74.8468 8.1981h-.6239v7.7399h5.1456zM20.5151 2.72437L17.8272.0458227h-3.408L11.7229 2.72437V15.1507l2.6544 2.8451h3.4332l2.7046-2.8451V2.72437z" clip-rule="evenodd"/></svg>